<svg width="32" height="32" viewBox="0 0 32 32" fill="none" xmlns="http://www.w3.org/2000/svg">
<circle cx="16" cy="16" r="16" fill="#E93E3F"/>
<rect x="11.3506" y="13.5385" width="10.2564" height="5.60684" fill="#FF7576"/>
<path d="M16.7696 10.5803C17.0199 10.1548 17.0199 9.62958 16.7696 9.20165L14.5146 5.38077C14.2616 4.95283 13.6307 4.95283 13.3777 5.38077L5.8328 18.1809C5.57989 18.6088 5.89506 19.1453 6.40152 19.1453L10.9077 19.1453C11.4109 19.1453 11.8744 18.8827 12.1247 18.4572L16.767 10.5803L16.7696 10.5803Z" fill="white"/>
<path d="M15.3626 22.2698C15.1184 22.7035 15.1184 23.239 15.3626 23.6752L17.5626 27.5703C17.8094 28.0065 18.425 28.0065 18.6717 27.5703L26.0327 14.5216C26.2794 14.0854 25.9719 13.5385 25.4778 13.5385L21.0815 13.5385C20.5906 13.5385 20.1384 13.8062 19.8942 14.2399L15.3651 22.2698L15.3626 22.2698Z" fill="white"/>
</svg>
