<svg width="200" height="200" viewBox="0 0 200 200" fill="none" xmlns="http://www.w3.org/2000/svg">
<rect width="200" height="200" fill="#E93E3F"/>
<rect x="75.3271" y="83.8601" width="55.4759" height="30.3268" fill="#FF7576"/>
<path d="M104.638 67.8597C105.992 65.5585 105.992 62.7174 104.638 60.4028L92.441 39.736C91.073 37.4213 87.66 37.4213 86.2921 39.736L45.4822 108.97C44.1142 111.285 45.819 114.187 48.5584 114.187L72.9318 114.187C75.6539 114.187 78.1606 112.766 79.5147 110.465L104.624 67.8597L104.638 67.8597Z" fill="white"/>
<path d="M97.0284 131.087C95.7073 133.433 95.7073 136.329 97.0284 138.688L108.928 159.757C110.263 162.116 113.592 162.116 114.927 159.757L154.741 89.1777C156.076 86.8181 154.413 83.86 151.74 83.86L127.961 83.86C125.306 83.86 122.86 85.3081 121.539 87.6539L97.0419 131.087L97.0284 131.087Z" fill="white"/>
</svg>
